<?xml version="1.0" encoding="iso-8859-1"?>
<!-- Generator: Adobe Illustrator 19.0.0, SVG Export Plug-In . SVG Version: 6.00 Build 0)  -->
<svg version="1.1" id="Layer_1" xmlns="http://www.w3.org/2000/svg" xmlns:xlink="http://www.w3.org/1999/xlink" x="0px" y="0px"
	 viewBox="0 0 330 330" style="enable-background:new 0 0 330 330;" xml:space="preserve">
<g id="XMLID_20_">
	<path fill="#00EE5D" id="XMLID_21_" d="M165,0C74.019,0,0,74.019,0,165s74.019,165,165,165s165-74.019,165-165S255.981,0,165,0z M165,300
		c-74.439,0-135-60.561-135-135S90.561,30,165,30s135,60.561,135,135S239.439,300,165,300z"/>
	<path fill="#00EE5D" id="XMLID_24_" d="M165,75c-8.284,0-15,6.716-15,15v8.334c0,8.284,6.716,15,15,15s15-6.716,15-15V90
		C180,81.716,173.284,75,165,75z"/>
	<path fill="#00EE5D" id="XMLID_25_" d="M165,216.667c-8.284,0-15,6.716-15,15V240c0,8.284,6.716,15,15,15s15-6.716,15-15v-8.333
		C180,223.382,173.284,216.667,165,216.667z"/>
	<path fill="#00EE5D" id="XMLID_26_" d="M240,150h-8.333c-8.284,0-15,6.716-15,15s6.716,15,15,15H240c8.284,0,15-6.716,15-15S248.284,150,240,150z"
		/>
	<path fill="#00EE5D" id="XMLID_27_" d="M113.333,165c0-8.284-6.716-15-15-15H90c-8.284,0-15,6.716-15,15s6.716,15,15,15h8.333
		C106.617,180,113.333,173.284,113.333,165z"/>
	<path fill="#00EE5D" id="XMLID_28_" d="M212.141,132.86c3.839,0,7.679-1.465,10.607-4.394l5.893-5.893c5.857-5.858,5.857-15.355-0.001-21.213
		c-5.859-5.857-15.356-5.857-21.214,0.001l-5.893,5.893c-5.857,5.858-5.856,15.355,0.001,21.213
		C204.464,131.395,208.302,132.86,212.141,132.86z"/>
	<path fill="#00EE5D" id="XMLID_29_" d="M107.252,201.534l-5.893,5.893c-5.857,5.858-5.856,15.355,0.001,21.213
		c2.93,2.929,6.768,4.393,10.606,4.393c3.839,0,7.679-1.465,10.607-4.394l5.893-5.893c5.857-5.858,5.856-15.355-0.001-21.213
		C122.606,195.676,113.109,195.676,107.252,201.534z"/>
	<path fill="#00EE5D" id="XMLID_30_" d="M222.748,201.534c-5.859-5.858-15.356-5.859-21.214-0.001c-5.857,5.857-5.858,15.355-0.001,21.213
		l5.893,5.893c2.93,2.93,6.769,4.394,10.607,4.394c3.838,0,7.678-1.464,10.606-4.393c5.857-5.857,5.858-15.355,0.001-21.213
		L222.748,201.534z"/>
	<path fill="#00EE5D" id="XMLID_31_" d="M122.574,101.361c-5.859-5.858-15.356-5.859-21.214-0.001c-5.857,5.857-5.858,15.355-0.001,21.213
		l5.893,5.893c2.93,2.93,6.769,4.394,10.607,4.394c3.838,0,7.678-1.464,10.606-4.393c5.857-5.857,5.858-15.355,0.001-21.213
		L122.574,101.361z"/>
</g>
<g>
</g>
<g>
</g>
<g>
</g>
<g>
</g>
<g>
</g>
<g>
</g>
<g>
</g>
<g>
</g>
<g>
</g>
<g>
</g>
<g>
</g>
<g>
</g>
<g>
</g>
<g>
</g>
<g>
</g>
</svg>
